<?xml version="1.0" encoding="UTF-8" standalone="no" ?>
<!-- Created with Inkscape (http://www.inkscape.org/) -->

<svg xmlns:dc="http://purl.org/dc/elements/1.1/" xmlns:cc="http://creativecommons.org/ns#" xmlns:rdf="http://www.w3.org/1999/02/22-rdf-syntax-ns#" xmlns:svg="http://www.w3.org/2000/svg" xmlns="http://www.w3.org/2000/svg" xmlns:sodipodi="http://sodipodi.sourceforge.net/DTD/sodipodi-0.dtd" xmlns:inkscape="http://www.inkscape.org/namespaces/inkscape" width="100" height="100" viewBox="0 0 26.458333 26.458333" version="1.1" id="svg5694" inkscape:version="0.92.4 (5da689c313, 2019-01-14)" sodipodi:docname="nalot.svg">
	<defs id="defs5688" />
	<sodipodi:namedview id="base" pagecolor="#ffffff" bordercolor="#666666" borderopacity="1.0" inkscape:pageopacity="0.0" inkscape:pageshadow="2" inkscape:zoom="4" inkscape:cx="16.214743" inkscape:cy="65.648164" inkscape:document-units="px" inkscape:current-layer="layer1" showgrid="false" units="px" inkscape:window-width="1920" inkscape:window-height="1017" inkscape:window-x="1592" inkscape:window-y="-8" inkscape:window-maximized="1" />
	<metadata id="metadata5691">
		<rdf:RDF>
			<cc:Work rdf:about="">
				<dc:format>image/svg+xml</dc:format>
				<dc:type rdf:resource="http://purl.org/dc/dcmitype/StillImage" />
				<dc:title></dc:title>
			</cc:Work>
		</rdf:RDF>
	</metadata>
	<g inkscape:label="Layer 1" inkscape:groupmode="layer" id="layer1" transform="translate(0,-270.54167)">
		<path style="fill:none;stroke:#000000;stroke-width:0.26458332px;stroke-linecap:butt;stroke-linejoin:miter;stroke-opacity:1" d="m 12.435417,273.98125 c -0.748394,1.62718 -0.439456,4.82115 -0.360205,6.18611 0.02251,0.38776 -0.168962,0.69306 -0.168962,0.69306 l -0.173362,0.18846 -0.267089,0.12729 -8.7154798,1.98519 -0.1644677,0.0682 -0.2046015,0.14437 c 0,0 -0.08294,0.0695 -0.1329188,0.17799 -0.1166754,0.25338 -0.2639566,0.71975 -0.2639562,1.01264 4e-7,0.32185 0.1935721,0.8532 0.3019351,1.08119 0.032486,0.0683 0.09494,0.10943 0.09494,0.10943 l 0.2002599,0.0806 9.457032,-0.47747 v 4.7625 l -2.4980099,0.62289 -0.1392283,0.0581 -0.1408872,0.11281 c 0,0 -0.2645833,0.51485 -0.2645833,0.79375 0,0.2789 0.2645833,0.79375 0.2645833,0.79375 l 0.088588,0.0443 0.1681766,0.0127 3.9765688,-0.057 0.07869,1.68636 0.0536,0.16572 c 0,0 0.222372,0.35645 0.401009,0.35553 0.176585,-9.1e-4 0.392741,-0.35553 0.392741,-0.35553 l 0.03297,-0.1342 0.09932,-1.71788 3.976569,0.057 0.168177,-0.0127 0.08859,-0.0443 c 0,0 0.264583,-0.51485 0.264583,-0.79375 0,-0.2789 -0.264583,-0.79375 -0.264583,-0.79375 l -0.140887,-0.11281 -0.139229,-0.0581 -2.49801,-0.62289 v -4.7625 l 9.457032,0.47747 0.20026,-0.0806 c 0,0 0.06245,-0.0411 0.09494,-0.10943 0.108363,-0.22799 0.301935,-0.75934 0.301935,-1.08119 10e-7,-0.29289 -0.14728,-0.75926 -0.263956,-1.01264 -0.04998,-0.10849 -0.132919,-0.17799 -0.132919,-0.17799 l -0.204601,-0.14437 -0.164468,-0.0682 -8.71548,-1.98519 -0.267089,-0.12729 -0.173362,-0.18846 c 0,0 -0.191472,-0.3053 -0.168962,-0.69306 0.07925,-1.36496 0.388189,-4.55893 -0.360205,-6.18611 -0.312705,-0.67989 -0.839145,-1.5875 -1.587499,-1.5875 -0.748354,0 -1.274794,0.90761 -1.587499,1.5875 z" id="path6239" inkscape:connector-curvature="0" sodipodi:nodetypes="ssccccccssscccccccaccccccaccccccacccccccsssccccccssas" />
	</g>
</svg>