<svg height="561pt" viewBox="-29 -17 561 561.33354" width="561pt" xmlns="http://www.w3.org/2000/svg"><path d="m305.117188 271.648438h-297.21875c-4.710938 0-8.523438-3.816407-8.523438-8.527344 0-4.710938 3.8125-8.519532 8.523438-8.519532h297.21875c4.710937 0 8.523437 3.808594 8.523437 8.519532 0 4.710937-3.8125 8.527344-8.523437 8.527344zm0 0"/><path d="m262.503906 526.25c-4.710937 0-8.527344-3.8125-8.527344-8.523438v-509.203124c0-4.710938 3.816407-8.523438 8.527344-8.523438 4.710938 0 8.523438 3.8125 8.523438 8.523438v509.203124c0 4.710938-3.8125 8.523438-8.523438 8.523438zm0 0"/><path d="m262.503906 340.59375c-42.71875 0-77.472656-34.753906-77.472656-77.472656 0-42.710938 34.753906-77.464844 77.472656-77.464844 29.703125 0 57.160156 17.324219 69.949219 44.144531 2.035156 4.25.226563 9.335938-4.015625 11.363281-4.242188 2.015626-9.351562.222657-11.363281-4.023437-9.980469-20.921875-31.402344-34.441406-54.570313-34.441406-33.320312 0-60.425781 27.109375-60.425781 60.421875 0 33.320312 27.105469 60.429687 60.425781 60.429687 27.472656 0 51.515625-18.535156 58.460938-45.074219 1.195312-4.558593 5.855468-7.253906 10.402344-6.097656 4.554687 1.199219 7.285156 5.851563 6.089843 10.40625-8.910156 34.039063-39.730469 57.808594-74.953125 57.808594zm0 0"/><path d="m262.503906 413.480469c-30.234375 0-59.394531-8.941407-84.320312-25.851563-3.898438-2.640625-4.914063-7.941406-2.265625-11.835937 2.648437-3.894531 7.945312-4.914063 11.835937-2.265625 22.097656 14.984375 47.941406 22.90625 74.75 22.90625 70.644532 0 128.632813-55.234375 133.042969-124.785156h-42.804687c-4.710938 0-8.523438-3.816407-8.523438-8.527344 0-4.710938 3.8125-8.519532 8.523438-8.519532h51.597656c4.710937 0 8.519531 3.808594 8.519531 8.519532 0 82.910156-67.453125 150.359375-150.355469 150.359375zm0 0"/><path d="m144.898438 350.949219c-2.742188 0-5.429688-1.3125-7.078126-3.75-16.792968-24.882813-25.675781-53.953125-25.675781-84.078125 0-82.902344 67.453125-150.351563 150.359375-150.351563 38.433594 0 75.0625 14.613281 103.136719 41.148438 3.417969 3.230469 3.582031 8.621093.34375 12.042969l-83.707031 88.640624h23.355468c4.710938 0 8.523438 3.808594 8.523438 8.519532 0 4.710937-3.8125 8.527344-8.523438 8.527344h-43.128906c-3.40625 0-6.484375-2.023438-7.824218-5.152344-1.347657-3.121094-.707032-6.75 1.632812-9.222656l91.253906-96.632813c-23.941406-19.929687-53.84375-30.824219-85.0625-30.824219-73.507812 0-133.308594 59.796875-133.308594 133.304688 0 26.710937 7.871094 52.484375 22.765626 74.535156 2.628906 3.898438 1.601562 9.195312-2.296876 11.835938-1.46875.984374-3.128906 1.457031-4.765624 1.457031zm0 0"/><path d="m262.503906 502.003906c-131.722656 0-238.882812-107.160156-238.882812-238.882812 0-54.019532 18.542968-106.964844 52.222656-149.078125 2.953125-3.65625 8.304688-4.269531 11.980469-1.335938 3.671875 2.949219 4.273437 8.3125 1.332031 11.988281-31.726562 39.664063-48.488281 87.523438-48.488281 138.425782 0 122.328125 99.507812 221.835937 221.835937 221.835937 119.464844 0 217.179688-94.921875 221.671875-213.308593h-131.4375c-4.710937 0-8.519531-3.816407-8.519531-8.527344 0-4.710938 3.808594-8.519532 8.519531-8.519532h140.121094c4.710937 0 8.523437 3.808594 8.523437 8.519532 0 131.722656-107.160156 238.882812-238.878906 238.882812zm0 0"/><path d="m305.632812 271.648438h-43.128906c-3.40625 0-6.484375-2.023438-7.824218-5.152344-1.347657-3.121094-.707032-6.75 1.632812-9.222656l152.042969-161c-40.527344-35.523438-92.003907-54.980469-145.851563-54.980469-50.503906 0-99.917968 17.417969-139.148437 49.054687-3.683594 2.96875-9.035157 2.378906-11.980469-1.28125-2.957031-3.664062-2.378906-9.035156 1.28125-11.988281 42.25-34.074219 95.464844-52.835937 149.847656-52.835937 61.054688 0 119.253906 23.222656 163.863282 65.378906 3.417968 3.234375 3.578124 8.621094.339843 12.046875l-144.429687 152.933593h23.355468c4.710938 0 8.523438 3.808594 8.523438 8.519532 0 4.710937-3.8125 8.527344-8.523438 8.527344zm0 0"/><path d="m159.445312 398.257812c-17.6875 0-32.078124-14.390624-32.078124-32.078124 0-17.695313 14.390624-32.085938 32.078124-32.085938 17.699219 0 32.085938 14.390625 32.085938 32.085938 0 17.6875-14.386719 32.078124-32.085938 32.078124zm0-47.113281c-8.289062 0-15.03125 6.75-15.03125 15.039063 0 8.289062 6.742188 15.03125 15.03125 15.03125 8.289063 0 15.039063-6.742188 15.039063-15.03125 0-8.289063-6.75-15.039063-15.039063-15.039063zm0 0"/><path d="m329.1875 289.144531c-17.699219 0-32.089844-14.390625-32.089844-32.078125 0-17.699218 14.390625-32.085937 32.089844-32.085937 17.6875 0 32.074219 14.386719 32.074219 32.085937 0 17.6875-14.386719 32.078125-32.074219 32.078125zm0-47.117187c-8.289062 0-15.039062 6.746094-15.039062 15.039062 0 8.289063 6.75 15.035156 15.039062 15.035156s15.03125-6.746093 15.03125-15.035156c0-8.292968-6.742188-15.039062-15.03125-15.039062zm0 0"/><path d="m98.832031 131.535156c-17.699219 0-32.089843-14.390625-32.089843-32.082031 0-17.699219 14.390624-32.089844 32.089843-32.089844 17.691407 0 32.085938 14.390625 32.085938 32.089844 0 17.691406-14.394531 32.082031-32.085938 32.082031zm0-47.121094c-8.289062 0-15.046875 6.746094-15.046875 15.039063 0 8.289063 6.757813 15.039063 15.046875 15.039063 8.289063 0 15.039063-6.75 15.039063-15.039063 0-8.292969-6.75-15.039063-15.039063-15.039063zm0 0"/></svg>